<?xml version="1.0" encoding="UTF-8" standalone="no"?>
<!DOCTYPE svg PUBLIC "-//W3C//DTD SVG 1.1//EN" "http://www.w3.org/Graphics/SVG/1.1/DTD/svg11.dtd">
<svg width="100%" height="100%" viewBox="0 0 1000 1000" version="1.1" xmlns="http://www.w3.org/2000/svg" xmlns:xlink="http://www.w3.org/1999/xlink" xml:space="preserve" xmlns:serif="http://www.serif.com/" style="fill-rule:evenodd;clip-rule:evenodd;stroke-miterlimit:10;">
    <g id="Artboard1" transform="matrix(7.35294,0,0,7.35294,0,0)">
        <rect x="0" y="0" width="136" height="136" style="fill:none;"/>
        <clipPath id="_clip1">
            <rect x="0" y="0" width="136" height="136"/>
        </clipPath>
        <g clip-path="url(#_clip1)">
            <g transform="matrix(1,0,0,1,-24.8471,-43.2989)">
                <g transform="matrix(1,0,0,1,25.0304,43.2046)">
                    <g transform="matrix(1,0,0,1,-1.87142,0)">
                        <g transform="matrix(-1.07508,0,0,1,144.364,-1.37936)">
                            <g transform="matrix(0.131598,0,0,0.0841781,23.9253,99.6858)">
                                <path d="M680.57,15.662C680.642,48.026 680.857,83.99 681.361,125.787C681.757,167.582 682.406,212.834 683.306,264.061C679.921,265.286 676.861,265.969 673.982,265.826C671.103,265.683 668.509,264.854 666.207,263.342L655.945,10.838C657.277,11.918 659.33,12.926 661.959,13.863C664.514,14.726 668.438,16.022 671.643,16.346C674.701,16.599 677.727,16.418 680.57,15.662Z" style="fill:rgb(192,168,134);stroke:black;stroke-width:0.04px;"/>
                            </g>
                            <g transform="matrix(0.131598,0,0,0.0841781,23.9253,99.6858)">
                                <path d="M671.967,9.471L673.155,13.035L678.231,14.942C674.415,15.951 670.922,16.13 667.467,15.482C664.01,14.762 660.735,13.214 657.639,10.837C660.375,9.542 663.002,8.858 665.379,8.642C667.826,8.354 669.842,8.679 671.967,9.471Z" style="fill:rgb(81,53,53);stroke:black;stroke-width:0.04px;"/>
                            </g>
                            <g transform="matrix(0.131598,0,0,0.0841781,23.9253,99.6858)">
                                <path d="M523.43,15.123L565.731,15.015L566.702,20.631L566.956,27.147L565.479,34.563L567.567,41.547L572.139,43.922L575.27,41.871L579.051,34.022L581.533,31.826L583.658,32.942L585.097,34.994L586.898,38.631L588.949,42.267L593.594,46.515L595.215,48.027L596.113,40.467L599.353,33.231L602.99,32.475L603.998,31.179L604.322,23.834L603.853,19.479L603.601,15.015L613.214,14.691L628.153,14.439L643.344,15.124L654.756,15.483L666.096,262.802L638.34,262.334L615.481,262.334L597.012,263.09L568.535,262.334L557.305,260.138L556.909,253.514L556.081,246.134L554.893,243.939L549.672,245.378L545.244,252.038L539.629,247.25L537.649,249.446L538.045,260.137C496.897,261.11 468.779,261.721 451.897,261.973C435.301,262.154 442.538,261.469 438.469,261.433C434.184,261.326 429.612,261.65 426.84,261.146C424.031,260.461 423.168,258.986 421.764,257.833C420.289,256.609 419.28,254.449 418.164,254.27C416.904,254.053 415.537,255.242 414.6,256.465C413.629,257.617 412.981,259.129 412.512,261.146C408.301,261.505 404.844,261.83 401.748,261.973C398.652,262.045 396.168,262.225 394.297,261.973C392.389,261.721 390.912,261.074 390.408,260.318C389.797,259.309 390.588,257.797 390.695,256.754C390.66,255.602 391.308,255.062 390.695,254.018C389.976,252.867 387.709,250.706 386.808,250.455C385.872,250.203 385.8,251.391 385.331,252.363C384.792,253.191 384.468,254.342 383.819,255.675C383.135,256.935 382.2,258.339 381.155,260.031C377.952,260.211 374.243,260.211 370.03,260.319C365.602,260.283 359.014,260.93 355.704,260.319C352.354,259.491 352.284,257.51 350.628,256.466C348.862,255.386 346.667,254.378 345.552,254.558C344.291,254.666 344.435,256.647 343.751,257.582C343.103,258.374 343.427,259.418 341.663,260.03C339.791,260.677 336.911,261.326 333.023,261.433C329.027,261.362 321.683,260.534 318.371,259.778C315.023,258.914 314.483,258.553 313.295,256.754C312.107,254.846 311.783,250.994 311.207,248.798C310.559,246.494 309.731,244.946 309.119,243.614C309.263,246.206 309.119,248.438 308.831,250.454C308.435,252.362 307.607,253.73 307.031,255.386C306.347,257.078 305.879,258.59 305.231,260.319C299.363,260.607 294.035,260.751 289.103,260.607C284.135,260.426 279.707,260.102 275.675,259.491C274.487,257.547 273.551,255.819 273.011,254.018C272.363,252.218 272.111,250.527 272.111,248.798C270.419,250.346 269.375,251.859 268.835,253.478C268.259,255.098 268.259,256.647 268.835,258.411C262.463,258.051 256.379,257.943 250.295,258.123C244.247,258.303 237.191,259.023 232.691,259.491C228.263,259.959 227.003,260.894 223.727,260.859C220.487,260.823 216.671,259.671 213.287,259.239C209.939,258.771 209.435,258.231 203.747,258.123C198.059,258.051 207.707,258.663 179.303,258.663L159.251,258.303L135.167,257.547L133.583,249.807L129.947,242.463L127.967,249.807L126.347,258.303L105.467,259.383L102.263,259.383C73.535,259.383 102.875,258.484 33.683,258.123L32.783,17.427L56.147,18.472L95.063,18.076L109.103,18.076L108.707,23.26L111.083,28.769L110.687,33.557L115.907,30.244L117.923,25.096L119.111,22.145L124.727,18.473C150.071,18.832 168.467,18.941 180.743,18.797C192.839,18.58 191.291,17.933 197.483,17.428C203.675,16.853 210.983,16.025 217.751,15.773C224.411,15.45 232.007,15.45 237.479,15.485C242.771,15.413 247.091,14.909 250.007,15.485C252.815,15.989 253.571,16.997 254.795,18.508C255.947,19.84 256.235,22.037 257.171,23.981C257.999,25.889 259.223,28.265 259.871,30.281C260.375,32.298 260.303,34.962 260.771,35.79C261.275,36.437 262.427,35.79 262.859,34.421C263.039,32.874 262.571,29.382 262.859,27.294C263.111,25.206 263.759,23.693 264.659,22.073C265.487,20.273 265.703,18.401 268.223,17.428C270.563,16.492 274.343,16.168 279.563,16.313C284.747,16.277 291.227,17.573 299.579,17.428C308.003,17.176 320.171,15.197 329.279,14.945C338.135,14.622 345.155,15.126 352.858,15.485C360.598,15.737 368.159,16.853 374.963,16.601C381.514,16.205 387.85,13.756 392.567,13.577C397.174,13.29 399.083,15.089 403.006,15.485C406.93,15.844 411.07,16.025 415.858,16.025C416.544,19.374 417.19,21.893 417.659,23.981C418.091,25.924 418.522,26.609 418.559,28.122C418.452,29.634 418.09,31.038 417.334,32.766C419.891,31.434 421.438,30.102 422.123,28.374C422.734,26.609 421.51,24.737 421.223,22.613C420.862,20.489 420.467,18.257 420.035,15.773C424.57,15.161 429.105,14.836 434.074,14.657C438.97,14.405 434.326,14.585 449.303,14.657C464.426,14.727 488.617,14.834 523.43,15.123Z" style="fill:rgb(162,130,105);stroke:black;stroke-width:0.04px;"/>
                            </g>
                            <g transform="matrix(0.131598,0,0,0.0841781,23.9253,99.6858)">
                                <path d="M33.218,12.207C33.29,81.867 33.398,136.551 33.542,179.174C33.758,221.582 33.902,249.59 34.118,264.998C31.454,263.234 28.862,262.046 26.054,261.434C23.354,260.714 20.618,260.894 17.702,261.147C14.858,261.291 11.87,261.974 8.738,262.802L13.238,13.035C16.514,11.342 19.25,10.154 21.59,9.471C23.93,8.715 25.406,8.426 27.278,8.895C29.222,9.398 31.202,10.371 33.218,12.207Z" style="fill:rgb(192,168,134);stroke:black;stroke-width:0.04px;"/>
                            </g>
                            <g transform="matrix(0.131598,0,0,0.0841781,23.9253,99.6858)">
                                <path d="M34.73,264.71C31.994,263.054 28.862,262.01 25.478,261.434C22.094,260.823 17.306,260.678 14.426,261.147C11.69,261.47 9.746,262.335 8.738,263.594C10.25,264.134 12.05,264.602 14.138,264.998C16.334,265.286 18.818,265.682 21.59,265.79L25.154,267.986C27.35,268.309 29.294,268.274 30.842,267.734C32.534,267.194 33.686,266.187 34.73,264.71Z" style="fill:rgb(81,53,53);stroke:black;stroke-width:0.04px;"/>
                            </g>
                            <g transform="matrix(0.131598,0,0,0.0841781,23.9253,99.6858)">
                                <path d="M672.578,8.643C670.31,8.284 667.826,8.284 664.945,8.643C662.029,8.967 657.998,9.831 654.47,10.838L654.47,14.582L634.993,14.438L623.977,13.791L612.961,14.115L602.844,14.33C602.844,14.33 603.961,23.834 603.852,26.894C603.528,38.594 600.325,25.13 596.149,37.082C593.989,43.274 589.344,43.526 587.58,39.098C578.508,16.274 577.141,49.898 568.572,40.862C566.34,38.522 566.916,36.974 566.736,32.762C566.556,28.55 567.961,28.658 567.816,24.014C567.709,19.37 566.232,14.222 566.232,14.222C566.232,14.222 550.607,14.942 532.355,14.798C514.103,14.618 510.9,14.474 492.863,14.114C474.826,13.754 460.644,13.897 460.644,13.897C424.572,13.825 441.996,13.79 438.54,13.897C435.011,13.969 430.259,14.437 426.983,14.689C423.743,14.905 421.223,15.409 419.135,15.336C418.846,15.84 418.846,16.992 419.135,18.865C419.387,20.736 420.862,24.264 420.719,26.461C420.539,28.621 419.17,28.117 419.135,26.748C419.063,25.345 418.307,25.416 417.838,23.545C417.406,21.601 417.01,18.937 416.578,15.336C413.482,15.301 410.025,15.084 406.066,14.761C402.142,14.401 398.757,13.141 393.035,13.285C387.31,13.465 377.734,15.264 372.047,15.625C366.395,15.984 362.219,15.877 359.303,15.336C355.883,14.508 351.707,14.041 346.594,13.897C341.447,13.752 333.994,14.185 328.775,14.473C323.591,14.761 321.611,15.301 315.743,15.625C309.839,15.984 299.939,16.561 293.783,16.524C287.663,16.453 283.847,15.228 279.131,15.336C274.451,15.445 270.059,16.021 265.775,17.101C265.523,17.893 265.091,18.829 264.515,20.017C263.939,21.205 262.607,21.961 262.283,24.121C261.995,26.281 262.823,31.32 262.607,32.869C262.391,34.381 261.887,34.488 261.023,33.156C261.527,30.564 261.455,28.26 260.699,26.172C259.943,24.049 257.531,22.213 256.559,20.592C255.623,18.973 256.847,17.496 254.975,16.525C253.103,15.517 251.015,14.977 245.435,14.761C239.783,14.58 227.975,15.157 221.567,15.336C215.195,15.553 212.963,15.517 207.347,15.912C201.731,16.308 216.887,17.568 187.907,17.677C180.095,17.785 172.283,17.929 164.471,18.073C155.903,17.857 147.335,17.605 138.767,17.353C133.439,17.461 128.111,17.569 122.747,17.713C120.875,19.045 120.835,17.573 118.963,18.942C118.963,18.942 117.203,21.168 117.023,22.428C116.807,23.724 116.303,26.928 116.303,26.928C114.971,28.512 113.639,30.096 112.307,31.716L112.307,28.044C111.695,25.919 110.399,25.991 109.895,23.255C109.391,20.484 110.291,16.991 110.291,16.991C101.867,16.884 93.443,16.739 85.019,16.595C78.755,16.487 72.455,16.379 66.155,16.235C36.815,16.343 108.095,17.387 33.755,16.523C33.863,14.795 33.971,13.032 34.079,11.267C31.091,8.963 27.851,7.883 24.215,8.028C20.579,8.208 16.727,9.54 12.443,12.132C10.97,96.158 9.494,180.182 8.018,264.242C8.162,264.458 9.314,264.746 11.51,265.141C13.706,265.536 16.838,266.005 21.05,266.581C21.662,267.337 22.31,268.129 22.958,268.921C26.054,269.029 28.538,268.849 30.59,268.345C32.642,267.841 34.082,267.085 35.054,266.005C34.874,263.701 34.694,261.361 34.478,259.022C42.614,259.129 50.786,259.238 58.958,259.381C71.522,259.741 84.086,260.101 96.65,260.497C107.09,260.281 117.53,260.029 127.97,259.777L127.97,255.348L131.021,253.695C130.913,256.395 138.93,256.35 138.786,259.051C172.95,258.87 191.078,258.95 206.594,259.381C221.93,259.814 218.366,261.577 224.522,261.613C230.678,261.649 238.094,259.921 243.278,259.596C248.462,259.237 250.946,259.704 255.374,259.596C259.802,259.416 264.518,259.164 269.702,258.697C269.702,256.501 269.918,254.665 270.314,253.153C270.746,251.64 271.502,253.441 271.898,255.205C272.366,256.969 273.302,258.589 274.778,260.173C280.754,260.785 286.406,261.181 291.95,261.325C297.53,261.469 302.714,261.397 307.862,261.037C307.214,259.381 306.998,257.833 307.214,256.357C307.466,254.88 308.762,254.233 309.122,252.289C309.518,250.309 310.526,249.985 310.742,251.388C310.922,252.828 310.418,254.34 311.03,255.781C311.678,257.22 311.822,258.841 314.558,259.885C317.294,260.893 322.55,261.721 327.266,261.902C331.982,262.118 339.434,262.118 342.53,261.038C345.626,259.958 343.97,255.566 345.734,255.494C347.498,255.458 349.513,259.886 353.043,260.75C356.57,261.578 361.898,260.498 366.723,260.462C371.548,260.426 376.442,260.426 381.662,260.462C382.598,259.238 383.426,257.87 384.219,256.358C385.012,254.846 385.442,251.354 386.449,251.389C387.459,251.461 390.051,255.457 390.265,256.646C390.482,257.834 387.206,257.438 387.71,258.41C388.249,259.382 389.042,262.01 393.433,262.514C397.898,262.983 404.665,262.622 414.134,261.326C414.925,257.222 416.077,255.206 417.626,255.206C419.175,255.206 420.794,260.174 423.349,261.326C425.833,262.442 422.269,262.477 462.626,262.694L498.733,261.973L539.629,261.614C539.629,261.614 538.943,257.834 539.233,255.349C539.557,252.866 537.756,249.986 538.837,249.446C539.954,248.906 542.761,254.342 545.245,253.118C547.765,251.93 550.069,246.494 550.069,246.494C550.069,246.494 552.805,244.118 554.1,245.378C555.397,246.674 555.684,248.691 556.08,252.038C556.512,255.35 554.676,256.07 555.684,258.662C556.692,261.218 560.112,262.334 560.112,262.334L600.612,263.81L617.065,263.451C658.104,263.703 665.592,262.803 665.592,262.803C665.592,262.803 667.897,265.648 670.992,266.007C674.125,266.331 678.373,265.971 684.023,264.856C682.98,181.696 681.935,98.537 680.855,15.339C679.128,14.476 677.687,13.792 676.392,13.288C675.132,12.819 674.087,12.532 673.224,12.423C673.01,11.162 672.795,9.902 672.578,8.643ZM680.574,17.555C677.334,18.203 673.262,16.742 670.059,16.526C666.819,16.274 662.75,15.302 660.483,14.474C658.251,13.646 657.026,12.673 656.667,11.558C654.92,11.082 657.351,32.654 658.286,53.318C659.186,74.089 660.591,99.686 662.102,134.822C663.579,170.101 665.27,212.006 667.178,262.801C669.231,263.917 671.498,264.493 674.162,264.53C676.861,264.601 679.777,264.134 683.09,263.09C681.938,180.722 681.761,99.959 680.574,17.555ZM665.234,261.218C551.33,260.642 591.795,261.974 574.55,261.218C574.55,261.218 565.226,261.434 561.302,260.138C557.413,258.842 559.79,259.491 558.89,256.071C557.99,252.651 558.818,249.987 557.701,246.495C556.584,243.003 554.498,242.067 554.498,242.067C554.498,242.067 549.566,243.543 547.262,245.775C544.959,247.97 540.566,245.486 538.441,246.134C536.353,246.782 537.326,250.094 536.822,253.514C536.353,256.899 536.426,259.779 536.426,259.779C519.182,259.023 489.518,259.779 489.518,259.779C476.811,259.995 464.102,260.247 451.395,260.499C411.399,260.319 428.499,261.579 425.655,260.463C422.774,259.311 420.544,254.775 418.671,253.732C416.8,252.723 415.648,253.156 414.53,254.307C413.415,255.495 412.587,257.62 411.975,260.751C407.438,261.147 403.586,261.327 400.204,261.327C396.854,261.327 393.507,261.291 391.96,260.751C390.413,260.211 390.88,258.843 390.987,258.123C391.094,257.403 392.788,257.367 392.571,256.359C392.354,255.351 390.842,253.119 389.727,252.003C388.575,250.851 386.991,249.267 385.911,249.663C384.831,250.059 384.147,252.686 383.354,254.307C382.526,255.927 381.807,257.583 381.124,259.276C375.04,259.095 369.927,258.988 365.534,258.988C361.141,258.988 357.723,259.816 355.022,259.276C352.395,258.736 351.243,256.864 349.624,255.784C348.04,254.704 346.636,252.975 345.483,252.868C344.367,252.76 343.575,254.128 342.963,255.208C342.315,256.288 344.078,258.412 341.666,259.276C339.254,260.175 332.774,260.608 328.634,260.464C324.494,260.284 319.814,259.348 317.114,258.412C314.414,257.476 313.55,257.044 312.65,254.92C311.75,252.76 308.834,246.532 308.51,248.764C308.186,251.033 306.89,252.508 306.278,254.308C305.702,256.144 305.27,257.872 305.018,259.6C304.37,259.636 301.742,259.636 297.062,259.6C292.346,259.529 285.794,259.456 277.01,259.277C275.57,257.764 274.526,256.037 273.842,254.02C273.158,252.003 270.494,249.737 269.702,251.392C268.91,253.084 268.37,254.993 268.118,257.26C256.094,257.188 246.518,257.368 238.85,257.836C231.218,258.268 229.67,259.816 224.054,259.78C218.474,259.708 230.102,258.232 198.782,257.727C191.618,257.44 184.454,257.152 177.29,256.828L148.814,256.828C144.53,256.72 143.292,251.456 139.008,251.312C139.008,251.312 134.918,251.285 134.378,248.693C132.902,246.388 127.862,246.209 126.746,249.809C125.63,253.409 125.558,256.83 125.558,256.83C118.07,257.298 110.582,257.802 103.094,258.306C71.306,257.802 117.746,256.867 34.73,256.974C34.334,177.414 33.902,97.855 33.47,18.258L80.198,19.555C89.558,19.338 98.918,19.086 108.314,18.834C108.314,18.834 107.198,22.219 107.486,24.738C107.81,27.222 108.998,25.998 109.502,28.77C110.006,31.542 108.602,32.73 109.502,35.791C110.402,38.814 111.518,36.33 112.706,33.558C113.93,30.787 116.306,32.442 117.926,29.886C119.546,27.294 117.134,25.745 119.114,23.261C121.13,20.778 125.954,19.95 125.954,19.95L158.462,19.95C168.974,20.057 178.334,19.913 186.974,19.445C195.65,18.941 203.786,17.609 209.87,17.105C215.954,16.601 216.89,16.601 223.154,16.529C229.49,16.421 242.234,16.133 247.346,16.529C252.422,16.925 252.17,18.005 253.394,18.87C254.618,19.697 253.754,19.806 254.654,21.497C255.59,23.153 258.002,26.321 258.794,28.806C259.586,31.253 258.65,34.638 259.442,36.077C260.27,37.517 262.862,38.237 263.582,37.265C264.266,36.256 263.366,32.693 263.582,30.244C263.798,27.795 264.05,24.629 264.842,22.648C265.634,20.705 266.786,19.373 268.334,18.544C273.086,17.68 277.154,17.212 280.754,17.104C284.318,16.996 284.246,17.86 289.646,17.968C295.154,18.075 305.342,18.112 313.19,17.68C321.074,17.247 330.614,15.628 336.41,15.339C342.17,15.052 342.926,15.484 347.57,15.915C352.215,16.384 358.55,17.751 364.093,17.968C369.673,18.184 375.29,17.644 380.654,17.104C385.982,16.564 392.101,14.873 395.918,14.764C399.697,14.656 400.094,16.024 403.227,16.528C406.395,16.996 410.139,17.392 414.674,17.68C416.33,20.812 417.266,23.8 417.555,26.751C417.807,29.667 421.19,30.027 422.307,28.191C423.422,26.391 423.207,26.212 422.955,24.411C422.703,22.575 421.945,20.271 420.723,17.391C421.694,16.887 424.215,16.527 428.354,16.239C432.495,15.915 424.827,15.339 462.518,15.339L489.59,15.232L529.586,16.024L548.27,15.701L565.155,15.449C565.155,15.449 566.198,20.524 566.163,25.6C566.091,30.64 564.472,31.251 564.938,35.716C565.372,40.144 565.19,41.331 567.999,43.348C580.778,52.419 576.278,18.724 587.763,41.224C590.464,46.516 595.72,45.903 597.664,39.208C601.012,27.868 605.512,38.2 605.045,27.003C604.9,24.016 603.893,15.808 603.893,15.808C603.893,15.808 609.581,15.52 622.504,15.016C635.428,14.548 654.473,16.24 654.473,16.24C658.033,97.887 661.635,179.534 665.234,261.218ZM671.318,10.082C671.714,11.342 672.146,12.603 672.578,13.898C674.055,14.257 675.529,14.654 677.043,15.05C673.623,15.23 670.49,15.05 667.502,14.474C664.514,13.863 661.814,12.925 659.223,11.558C661.887,10.622 664.19,10.046 666.207,9.794C668.258,9.543 669.914,9.65 671.318,10.082ZM9.53,263.666C11.294,262.838 13.49,262.37 16.19,262.226C18.926,262.046 22.85,262.298 25.766,262.802C28.646,263.271 31.13,264.062 33.398,265.142C32.102,266.042 30.734,266.655 29.258,266.871C27.746,267.123 26.198,267.015 24.47,266.583C23.426,265.899 22.382,265.215 21.302,264.531L9.53,263.666ZM33.398,262.802C32.966,238.79 32.642,206.642 32.426,164.63C32.21,122.475 32.102,72.615 32.102,12.422C31.346,10.515 29.474,9.651 26.378,9.795C23.282,9.939 19.106,11.09 13.67,13.287C12.302,95.942 10.934,178.634 9.53,261.326C13.706,260.389 17.342,259.922 20.654,259.886C23.966,259.815 27.098,260.534 29.258,261.038C31.382,261.542 32.75,262.118 33.398,262.802Z" style="fill:rgb(244,236,214);stroke:rgb(81,53,53);stroke-width:8.59px;stroke-linejoin:bevel;"/>
                            </g>
                        </g>
                        <g transform="matrix(1,0,0,1,1.45837,-12.2544)">
                            <g transform="matrix(12,0,0,12,26.1818,126.131)">
                                <path d="M0.312,-0.649L0.312,-0.37L0.421,-0.37C0.453,-0.371 0.479,-0.381 0.499,-0.402C0.519,-0.422 0.529,-0.448 0.529,-0.479L0.529,-0.484L0.539,-0.484L0.539,-0.206L0.529,-0.206L0.529,-0.211C0.529,-0.242 0.519,-0.268 0.499,-0.289C0.479,-0.309 0.453,-0.319 0.422,-0.32L0.312,-0.32L0.312,-0.073C0.312,-0.056 0.318,-0.041 0.331,-0.029C0.344,-0.016 0.359,-0.01 0.376,-0.01L0.389,-0.01L0.389,-0L0.03,-0L0.03,-0.01L0.043,-0.01C0.06,-0.01 0.075,-0.016 0.088,-0.029C0.1,-0.041 0.106,-0.056 0.107,-0.073L0.107,-0.627C0.106,-0.644 0.1,-0.659 0.088,-0.672C0.075,-0.684 0.06,-0.69 0.043,-0.69L0.03,-0.69L0.03,-0.7L0.473,-0.7C0.502,-0.7 0.527,-0.702 0.549,-0.707C0.571,-0.712 0.585,-0.715 0.592,-0.718L0.592,-0.512L0.582,-0.512L0.582,-0.52C0.582,-0.573 0.563,-0.611 0.524,-0.632C0.505,-0.643 0.483,-0.648 0.457,-0.649L0.312,-0.649Z" style="fill:rgb(249,245,234);fill-rule:nonzero;"/>
                            </g>
                            <g transform="matrix(12,0,0,12,33.7538,126.131)">
                                <path d="M0.03,-0.563C0.058,-0.586 0.096,-0.603 0.144,-0.616C0.192,-0.629 0.242,-0.635 0.295,-0.635C0.347,-0.635 0.395,-0.628 0.438,-0.614C0.481,-0.599 0.515,-0.578 0.54,-0.55C0.565,-0.522 0.578,-0.489 0.578,-0.451C0.578,-0.421 0.568,-0.39 0.547,-0.357C0.536,-0.338 0.51,-0.313 0.47,-0.281C0.445,-0.261 0.409,-0.239 0.363,-0.215C0.315,-0.191 0.29,-0.178 0.287,-0.176L0.477,-0.176C0.506,-0.176 0.532,-0.184 0.555,-0.2C0.577,-0.215 0.597,-0.24 0.614,-0.273L0.624,-0.273L0.556,-0L0.036,-0L0.036,-0.009C0.058,-0.035 0.087,-0.067 0.123,-0.106C0.159,-0.145 0.189,-0.178 0.214,-0.205C0.238,-0.232 0.262,-0.261 0.287,-0.293C0.338,-0.358 0.363,-0.419 0.363,-0.474C0.363,-0.511 0.352,-0.539 0.331,-0.559C0.309,-0.578 0.282,-0.588 0.25,-0.588C0.201,-0.588 0.165,-0.571 0.142,-0.536C0.119,-0.501 0.107,-0.453 0.107,-0.392L0.097,-0.392L0.03,-0.563Z" style="fill:rgb(249,245,234);fill-rule:nonzero;"/>
                            </g>
                            <g transform="matrix(12,0,0,12,41.6498,126.131)">
                                <path d="M0.693,-0.495C0.693,-0.464 0.687,-0.435 0.675,-0.406C0.662,-0.377 0.644,-0.353 0.621,-0.334C0.579,-0.3 0.534,-0.283 0.487,-0.283C0.439,-0.283 0.394,-0.298 0.351,-0.329L0.351,-0.339C0.375,-0.343 0.393,-0.349 0.406,-0.358C0.418,-0.367 0.428,-0.375 0.435,-0.383C0.452,-0.401 0.463,-0.422 0.469,-0.446C0.474,-0.47 0.477,-0.487 0.477,-0.497C0.477,-0.55 0.466,-0.588 0.443,-0.613C0.42,-0.638 0.39,-0.65 0.352,-0.65L0.317,-0.65L0.317,-0.073C0.318,-0.056 0.324,-0.041 0.337,-0.029C0.349,-0.016 0.364,-0.01 0.381,-0.01L0.394,-0.01L0.394,-0L0.035,-0L0.035,-0.01L0.048,-0.01C0.072,-0.01 0.09,-0.02 0.103,-0.041C0.109,-0.051 0.112,-0.062 0.112,-0.073L0.112,-0.632C0.112,-0.648 0.106,-0.662 0.093,-0.673C0.08,-0.684 0.065,-0.69 0.048,-0.69L0.036,-0.69L0.035,-0.7L0.416,-0.7C0.507,-0.7 0.577,-0.681 0.626,-0.643C0.671,-0.609 0.693,-0.56 0.693,-0.495Z" style="fill:rgb(249,245,234);fill-rule:nonzero;"/>
                            </g>
                            <g transform="matrix(12,0,0,12,53.1338,126.131)">
                                <path d="M0.516,-0.01C0.534,-0.01 0.549,-0.016 0.562,-0.029C0.574,-0.041 0.58,-0.056 0.581,-0.073L0.581,-0.325L0.313,-0.325L0.313,-0.07C0.313,-0.004 0.297,0.055 0.265,0.106C0.232,0.16 0.179,0.191 0.106,0.199C0.099,0.2 0.091,0.201 0.082,0.201C0.051,0.201 0.016,0.195 -0.023,0.182L-0.023,0.172C0.03,0.151 0.066,0.123 0.083,0.086C0.095,0.061 0.102,0.039 0.104,0.019C0.107,-0.007 0.108,-0.037 0.108,-0.07L0.108,-0.628C0.107,-0.645 0.101,-0.66 0.089,-0.672C0.076,-0.684 0.061,-0.69 0.044,-0.69L0.031,-0.69L0.031,-0.7L0.39,-0.7L0.39,-0.69L0.377,-0.69C0.353,-0.69 0.335,-0.68 0.323,-0.66C0.317,-0.651 0.314,-0.64 0.313,-0.629L0.313,-0.375L0.581,-0.375L0.581,-0.61C0.581,-0.648 0.589,-0.685 0.605,-0.72C0.621,-0.755 0.644,-0.786 0.673,-0.811C0.719,-0.852 0.774,-0.872 0.837,-0.872C0.862,-0.872 0.888,-0.869 0.915,-0.862L0.915,-0.852C0.883,-0.842 0.856,-0.826 0.833,-0.803C0.819,-0.79 0.807,-0.766 0.796,-0.731C0.791,-0.714 0.788,-0.694 0.787,-0.672C0.786,-0.649 0.786,-0.629 0.786,-0.61L0.786,-0.073C0.786,-0.05 0.796,-0.032 0.817,-0.019C0.827,-0.013 0.838,-0.01 0.85,-0.01L0.862,-0.01L0.862,-0L0.504,-0L0.504,-0.01L0.516,-0.01Z" style="fill:rgb(249,245,234);fill-rule:nonzero;"/>
                            </g>
                            <g transform="matrix(12,0,0,12,63.8498,126.131)">
                                <path d="M0.043,-0.01C0.06,-0.01 0.075,-0.016 0.088,-0.029C0.1,-0.041 0.106,-0.056 0.107,-0.073L0.107,-0.627C0.106,-0.648 0.097,-0.665 0.08,-0.678C0.069,-0.686 0.057,-0.69 0.043,-0.69L0.03,-0.69L0.03,-0.7L0.473,-0.7C0.502,-0.7 0.527,-0.702 0.55,-0.707C0.572,-0.712 0.586,-0.715 0.592,-0.718L0.592,-0.512L0.582,-0.512L0.582,-0.52C0.582,-0.573 0.563,-0.611 0.524,-0.632C0.505,-0.643 0.483,-0.648 0.457,-0.649L0.312,-0.649L0.312,-0.37L0.421,-0.37C0.453,-0.371 0.479,-0.381 0.499,-0.402C0.519,-0.422 0.529,-0.448 0.529,-0.48L0.529,-0.484L0.539,-0.484L0.539,-0.206L0.529,-0.206L0.529,-0.211C0.529,-0.242 0.519,-0.268 0.499,-0.289C0.479,-0.309 0.453,-0.319 0.422,-0.32L0.312,-0.32L0.312,-0.051L0.435,-0.051C0.484,-0.051 0.527,-0.067 0.564,-0.099C0.601,-0.131 0.628,-0.175 0.643,-0.232L0.653,-0.232L0.615,-0L0.03,-0L0.03,-0.01L0.043,-0.01Z" style="fill:rgb(249,245,234);fill-rule:nonzero;"/>
                            </g>
                            <g transform="matrix(12,0,0,12,71.8418,126.131)">
                                <path d="M0.043,-0.01C0.06,-0.01 0.075,-0.016 0.088,-0.029C0.1,-0.041 0.106,-0.056 0.107,-0.073L0.107,-0.627C0.106,-0.652 0.096,-0.67 0.075,-0.682C0.065,-0.687 0.054,-0.69 0.043,-0.69L0.03,-0.69L0.03,-0.7L0.389,-0.7L0.389,-0.69L0.376,-0.69C0.359,-0.69 0.344,-0.684 0.331,-0.672C0.318,-0.659 0.312,-0.644 0.312,-0.627L0.312,-0.051L0.435,-0.051C0.484,-0.051 0.527,-0.067 0.564,-0.099C0.601,-0.131 0.628,-0.175 0.643,-0.232L0.653,-0.232L0.615,-0L0.03,-0L0.03,-0.01L0.043,-0.01Z" style="fill:rgb(249,245,234);fill-rule:nonzero;"/>
                            </g>
                            <g transform="matrix(12,0,0,12,79.6658,126.131)">
                                <path d="M0.693,-0.495C0.693,-0.464 0.687,-0.435 0.675,-0.406C0.662,-0.377 0.644,-0.353 0.621,-0.334C0.579,-0.3 0.534,-0.283 0.487,-0.283C0.439,-0.283 0.394,-0.298 0.351,-0.329L0.351,-0.339C0.375,-0.343 0.393,-0.349 0.406,-0.358C0.418,-0.367 0.428,-0.375 0.435,-0.383C0.452,-0.401 0.463,-0.422 0.469,-0.446C0.474,-0.47 0.477,-0.487 0.477,-0.497C0.477,-0.55 0.466,-0.588 0.443,-0.613C0.42,-0.638 0.39,-0.65 0.352,-0.65L0.317,-0.65L0.317,-0.073C0.318,-0.056 0.324,-0.041 0.337,-0.029C0.349,-0.016 0.364,-0.01 0.381,-0.01L0.394,-0.01L0.394,-0L0.035,-0L0.035,-0.01L0.048,-0.01C0.072,-0.01 0.09,-0.02 0.103,-0.041C0.109,-0.051 0.112,-0.062 0.112,-0.073L0.112,-0.632C0.112,-0.648 0.106,-0.662 0.093,-0.673C0.08,-0.684 0.065,-0.69 0.048,-0.69L0.036,-0.69L0.035,-0.7L0.416,-0.7C0.507,-0.7 0.577,-0.681 0.626,-0.643C0.671,-0.609 0.693,-0.56 0.693,-0.495Z" style="fill:rgb(249,245,234);fill-rule:nonzero;"/>
                            </g>
                            <g transform="matrix(12,0,0,12,88.1498,126.131)">
                                <path d="M0.043,-0.01C0.06,-0.01 0.075,-0.016 0.088,-0.029C0.1,-0.041 0.106,-0.056 0.107,-0.073L0.107,-0.627C0.106,-0.648 0.097,-0.665 0.08,-0.678C0.069,-0.686 0.057,-0.69 0.043,-0.69L0.03,-0.69L0.03,-0.7L0.473,-0.7C0.502,-0.7 0.527,-0.702 0.55,-0.707C0.572,-0.712 0.586,-0.715 0.592,-0.718L0.592,-0.512L0.582,-0.512L0.582,-0.52C0.582,-0.573 0.563,-0.611 0.524,-0.632C0.505,-0.643 0.483,-0.648 0.457,-0.649L0.312,-0.649L0.312,-0.37L0.421,-0.37C0.453,-0.371 0.479,-0.381 0.499,-0.402C0.519,-0.422 0.529,-0.448 0.529,-0.48L0.529,-0.484L0.539,-0.484L0.539,-0.206L0.529,-0.206L0.529,-0.211C0.529,-0.242 0.519,-0.268 0.499,-0.289C0.479,-0.309 0.453,-0.319 0.422,-0.32L0.312,-0.32L0.312,-0.051L0.435,-0.051C0.484,-0.051 0.527,-0.067 0.564,-0.099C0.601,-0.131 0.628,-0.175 0.643,-0.232L0.653,-0.232L0.615,-0L0.03,-0L0.03,-0.01L0.043,-0.01Z" style="fill:rgb(249,245,234);fill-rule:nonzero;"/>
                            </g>
                            <g transform="matrix(12,0,0,12,96.1418,126.131)">
                                <path d="M0.721,-0.504C0.721,-0.468 0.711,-0.435 0.692,-0.405C0.672,-0.374 0.648,-0.353 0.62,-0.341C0.592,-0.328 0.564,-0.322 0.537,-0.322C0.529,-0.322 0.521,-0.322 0.514,-0.323C0.556,-0.314 0.594,-0.288 0.629,-0.245C0.645,-0.226 0.663,-0.201 0.683,-0.171C0.703,-0.14 0.717,-0.119 0.725,-0.108C0.765,-0.051 0.805,-0.004 0.845,0.032C0.93,0.109 1.04,0.152 1.174,0.16L1.174,0.17C1.137,0.196 1.091,0.215 1.036,0.226C1.003,0.233 0.971,0.236 0.939,0.236C0.906,0.236 0.872,0.231 0.836,0.222C0.8,0.213 0.765,0.199 0.73,0.18C0.695,0.161 0.66,0.134 0.625,0.099C0.589,0.064 0.56,0.028 0.537,-0.01C0.514,-0.047 0.495,-0.082 0.478,-0.116C0.461,-0.149 0.446,-0.182 0.431,-0.215C0.416,-0.248 0.406,-0.268 0.403,-0.275C0.384,-0.315 0.366,-0.337 0.351,-0.342L0.351,-0.352L0.367,-0.352C0.41,-0.352 0.446,-0.369 0.474,-0.403C0.49,-0.422 0.499,-0.443 0.502,-0.464C0.505,-0.485 0.506,-0.498 0.506,-0.504C0.506,-0.554 0.491,-0.591 0.462,-0.614C0.433,-0.636 0.399,-0.648 0.362,-0.648L0.318,-0.648L0.318,-0.073C0.318,-0.056 0.324,-0.041 0.337,-0.029C0.35,-0.016 0.365,-0.01 0.382,-0.01L0.394,-0.01L0.394,-0L0.035,-0L0.035,-0.01L0.048,-0.01C0.065,-0.01 0.08,-0.016 0.093,-0.028C0.105,-0.04 0.111,-0.055 0.112,-0.072L0.112,-0.627C0.111,-0.652 0.101,-0.67 0.08,-0.682C0.07,-0.687 0.059,-0.69 0.048,-0.69L0.036,-0.69L0.036,-0.7L0.426,-0.7C0.525,-0.7 0.601,-0.683 0.652,-0.648C0.698,-0.617 0.721,-0.569 0.721,-0.504Z" style="fill:rgb(249,245,234);fill-rule:nonzero;"/>
                            </g>
                        </g>
                    </g>
                    <g transform="matrix(0.9996,0,0,0.9996,-0.183288,101.712)">
                        <g transform="matrix(1,0,0,1,0,0.5)">
                            <path d="M6,0L10,0M6,1L7,1M9,1L10,1M6,2L7,2M9,2L10,2M5,3L6,3M10,3L11,3M5,4L6,4M10,4L11,4M0,5L6,5M10,5L16,5M0,6L1,6M15,6L16,6M0,7L1,7M15,7L16,7M1,8L2,8M14,8L15,8M2,9L3,9M13,9L14,9M3,10L4,10M12,10L13,10M3,11L4,11M12,11L13,11M3,12L4,12M12,12L13,12M2,13L3,13M7,13L9,13M13,13L14,13M2,14L3,14M6,14L7,14M9,14L10,14M13,14L14,14M2,15L6,15M10,15L14,15" style="fill-rule:nonzero;"/>
                        </g>
                        <g transform="matrix(0.136054,0,0,0.136054,-2.74912e-15,-101.659)">
                            <path d="M95.55,842.741L95.55,857.441L73.5,857.441L73.5,864.791L102.9,864.791L102.9,842.741L95.55,842.741ZM22.05,857.441L22.05,842.741L14.7,842.741L14.7,864.791L44.1,864.791L44.1,857.441C44.1,857.441 51.45,857.441 51.45,857.441L51.45,850.091L44.1,850.091L44.1,857.441L22.05,857.441ZM66.15,857.441L73.5,857.441L73.5,850.091L66.15,850.091L66.15,857.441ZM51.45,850.091L66.15,850.091L66.15,842.741L51.45,842.741L51.45,850.091ZM95.55,842.741L95.55,820.691L88.2,820.691L88.2,842.741L95.55,842.741ZM29.4,842.741L29.4,820.691L22.05,820.691L22.05,842.741L29.4,842.741ZM14.7,820.691L22.05,820.691L22.05,813.341L14.7,813.341L14.7,820.691ZM95.55,820.691L102.9,820.691L102.9,813.341L95.55,813.341L95.55,820.691ZM102.9,813.341L110.25,813.341L110.25,805.991L102.9,805.991L102.9,813.341ZM7.35,813.341L14.7,813.341L14.7,805.991L7.35,805.991L7.35,813.341ZM110.25,791.291L110.25,805.991L117.6,805.991L117.6,783.941L80.85,783.941L80.85,769.241L73.5,769.241L73.5,791.291L110.25,791.291ZM44.1,791.291L44.1,769.241L36.75,769.241L36.75,783.941L0,783.941L0,805.991L7.35,805.991L7.35,791.291L44.1,791.291ZM73.5,769.241L73.5,747.191L44.1,747.191L44.1,769.241L51.45,769.241L51.45,754.541L66.15,754.541L66.15,769.241L73.5,769.241Z" style="fill:rgb(56,36,24);"/>
                        </g>
                        <g transform="matrix(1,0,0,1,0,0.5)">
                            <path d="M7,1L8,1M7,2L8,2M6,3L7,3M6,4L7,4M6,5L7,5M3,6L4,6" style="fill-rule:nonzero;"/>
                        </g>
                        <g transform="matrix(1,0,0,1,0,0.5)">
                            <path d="M3,6.5L4,6.5L4,5.5L3,5.5L3,6.5ZM6,5.5L7,5.5L7,4.5L6,4.5L6,5.5ZM6,4.5L7,4.5L7,3.5L6,3.5L6,4.5ZM6,3.5L7,3.5L7,2.5L6,2.5L6,3.5ZM7,2.5L8,2.5L8,1.5L7,1.5L7,2.5ZM7,1.5L8,1.5L8,0.5L7,0.5L7,1.5Z" style="fill:rgb(232,232,232);"/>
                        </g>
                        <g transform="matrix(1,0,0,1,0,0.5)">
                            <path d="M8,1L9,1M9,3L10,3M11,11L12,11M6,13L7,13M5,14L6,14" style="fill-rule:nonzero;"/>
                        </g>
                        <g transform="matrix(1,0,0,1,0,0.5)">
                            <path d="M5,14.5L6,14.5L6,13.5L5,13.5L5,14.5ZM6,13.5L7,13.5L7,12.5L6,12.5L6,13.5ZM11,11.5L12,11.5L12,10.5L11,10.5L11,11.5ZM9,3.5L10,3.5L10,2.5L9,2.5L9,3.5ZM8,1.5L9,1.5L9,0.5L8,0.5L8,1.5Z" style="fill:rgb(127,127,127);"/>
                        </g>
                        <g transform="matrix(1,0,0,1,0,0.5)">
                            <path d="M8,2L9,2M9,4L10,4M6,12L7,12" style="fill-rule:nonzero;"/>
                        </g>
                        <g transform="matrix(1,0,0,1,0,0.5)">
                            <path d="M6,12.5L7,12.5L7,11.5L6,11.5L6,12.5ZM9,4.5L10,4.5L10,3.5L9,3.5L9,4.5ZM8,2.5L9,2.5L9,1.5L8,1.5L8,2.5Z" style="fill:rgb(133,133,133);"/>
                        </g>
                        <g transform="matrix(1,0,0,1,0,0.5)">
                            <path d="M7,3L8,3M5,6L8,6M4,7L5,7M6,7L7,7M11,7L12,7M12,8L13,8M11,9L12,9M4,12L5,12M9,12L10,12" style="fill-rule:nonzero;"/>
                        </g>
                        <g transform="matrix(1,0,0,1,0,0.5)">
                            <path d="M4,12.5L5,12.5L5,11.5L4,11.5L4,12.5ZM9,12.5L10,12.5L10,11.5L9,11.5L9,12.5ZM11,9.5L12,9.5L12,8.5L11,8.5L11,9.5ZM12,8.5L13,8.5L13,7.5L12,7.5L12,8.5ZM4,7.5L5,7.5L5,6.5L4,6.5L4,7.5ZM6,7.5L7,7.5L7,6.5L6,6.5L6,7.5ZM11,7.5L12,7.5L12,6.5L11,6.5L11,7.5ZM5,6.5L8,6.5L8,5.5L5,5.5L5,6.5ZM7,3.5L8,3.5L8,2.5L7,2.5L7,3.5Z" style="fill:rgb(190,190,190);"/>
                        </g>
                        <g transform="matrix(1,0,0,1,0,0.5)">
                            <path d="M8,3L9,3M11,10L12,10" style="fill-rule:nonzero;"/>
                        </g>
                        <g transform="matrix(1,0,0,1,0,0.5)">
                            <path d="M11,10.5L12,10.5L12,9.5L11,9.5L11,10.5ZM8,3.5L9,3.5L9,2.5L8,2.5L8,3.5Z" style="fill:rgb(151,151,151);"/>
                        </g>
                        <g transform="matrix(1,0,0,1,0,0.5)">
                            <path d="M7,4L8,4M7,5L8,5M3,7L4,7" style="fill-rule:nonzero;"/>
                        </g>
                        <g transform="matrix(1,0,0,1,0,0.5)">
                            <path d="M3,7.5L4,7.5L4,6.5L3,6.5L3,7.5ZM7,5.5L8,5.5L8,4.5L7,4.5L7,5.5ZM7,4.5L8,4.5L8,3.5L7,3.5L7,4.5Z" style="fill:rgb(194,194,194);"/>
                        </g>
                        <g transform="matrix(1,0,0,1,0,0.5)">
                            <path d="M8,4L9,4M5,12L6,12M10,13L11,13" style="fill-rule:nonzero;"/>
                        </g>
                        <g transform="matrix(1,0,0,1,0,0.5)">
                            <path d="M10,13.5L11,13.5L11,12.5L10,12.5L10,13.5ZM5,12.5L6,12.5L6,11.5L5,11.5L5,12.5ZM8,4.5L9,4.5L9,3.5L8,3.5L8,4.5Z" style="fill:rgb(160,160,160);"/>
                        </g>
                        <g transform="matrix(1,0,0,1,0,0.5)">
                            <path d="M8,5L9,5M5,7L6,7M8,8L9,8M10,8L11,8M4,9L5,9M7,9L8,9M9,9L10,9M6,10L7,10M8,10L9,10M9,13L10,13M10,14L11,14" style="fill-rule:nonzero;"/>
                        </g>
                        <g transform="matrix(1,0,0,1,0,0.5)">
                            <path d="M10,14.5L11,14.5L11,13.5L10,13.5L10,14.5ZM9,13.5L10,13.5L10,12.5L9,12.5L9,13.5ZM6,10.5L7,10.5L7,9.5L6,9.5L6,10.5ZM8,10.5L9,10.5L9,9.5L8,9.5L8,10.5ZM4,9.5L5,9.5L5,8.5L4,8.5L4,9.5ZM7,9.5L8,9.5L8,8.5L7,8.5L7,9.5ZM9,9.5L10,9.5L10,8.5L9,8.5L9,9.5ZM8,8.5L9,8.5L9,7.5L8,7.5L8,8.5ZM10,8.5L11,8.5L11,7.5L10,7.5L10,8.5ZM5,7.5L6,7.5L6,6.5L5,6.5L5,7.5ZM8,5.5L9,5.5L9,4.5L8,4.5L8,5.5Z" style="fill:rgb(180,180,180);"/>
                        </g>
                        <g transform="matrix(1,0,0,1,0,0.5)">
                            <path d="M9,5L10,5M9,7L11,7M5,8L6,8M5,11L6,11M3,13L4,13M3,14L4,14" style="fill-rule:nonzero;"/>
                        </g>
                        <g transform="matrix(1,0,0,1,0,0.5)">
                            <path d="M3,14.5L4,14.5L4,13.5L3,13.5L3,14.5ZM3,13.5L4,13.5L4,12.5L3,12.5L3,13.5ZM5,11.5L6,11.5L6,10.5L5,10.5L5,11.5ZM5,8.5L6,8.5L6,7.5L5,7.5L5,8.5ZM9,7.5L11,7.5L11,6.5L9,6.5L9,7.5ZM9,5.5L10,5.5L10,4.5L9,4.5L9,5.5Z" style="fill:rgb(184,184,184);"/>
                        </g>
                        <g transform="matrix(1,0,0,1,0,0.5)">
                            <path d="M1,6L3,6M4,6L5,6M11,6L12,6" style="fill-rule:nonzero;"/>
                        </g>
                        <g transform="matrix(1,0,0,1,0,0.5)">
                            <path d="M1,6.5L3,6.5L3,5.5L1,5.5L1,6.5ZM4,6.5L5,6.5L5,5.5L4,5.5L4,6.5ZM11,6.5L12,6.5L12,5.5L11,5.5L11,6.5Z" style="fill:rgb(216,216,216);"/>
                        </g>
                        <g transform="matrix(1,0,0,1,0,0.5)">
                            <path d="M8,6L10,6M14,6L15,6M7,7L8,7M5,9L6,9M4,10L6,10M4,11L5,11M8,11L9,11" style="fill-rule:nonzero;"/>
                        </g>
                        <g transform="matrix(1,0,0,1,0,0.5)">
                            <path d="M4,11.5L5,11.5L5,10.5L4,10.5L4,11.5ZM8,11.5L9,11.5L9,10.5L8,10.5L8,11.5ZM4,10.5L6,10.5L6,9.5L4,9.5L4,10.5ZM5,9.5L6,9.5L6,8.5L5,8.5L5,9.5ZM7,7.5L8,7.5L8,6.5L7,6.5L7,7.5ZM8,6.5L10,6.5L10,5.5L8,5.5L8,6.5ZM14,6.5L15,6.5L15,5.5L14,5.5L14,6.5Z" style="fill:rgb(208,208,208);"/>
                        </g>
                        <g transform="matrix(1,0,0,1,0,0.5)">
                            <path d="M10,6L11,6M8,7L9,7M12,7L13,7M6,8L8,8M6,9L7,9M9,10L10,10M9,11L10,11M8,12L9,12" style="fill-rule:nonzero;"/>
                        </g>
                        <g transform="matrix(1,0,0,1,0,0.5)">
                            <path d="M8,12.5L9,12.5L9,11.5L8,11.5L8,12.5ZM9,11.5L10,11.5L10,10.5L9,10.5L9,11.5ZM9,10.5L10,10.5L10,9.5L9,9.5L9,10.5ZM6,9.5L7,9.5L7,8.5L6,8.5L6,9.5ZM6,8.5L8,8.5L8,7.5L6,7.5L6,8.5ZM8,7.5L9,7.5L9,6.5L8,6.5L8,7.5ZM12,7.5L13,7.5L13,6.5L12,6.5L12,7.5ZM10,6.5L11,6.5L11,5.5L10,5.5L10,6.5Z" style="fill:rgb(205,205,205);"/>
                        </g>
                        <g transform="matrix(1,0,0,1,0,0.5)">
                            <path d="M12,6L13,6" style="fill:none;fill-rule:nonzero;"/>
                        </g>
                        <g transform="matrix(1,0,0,1,0,0.5)">
                            <path d="M12,6.5L13,6.5L13,5.5L12,5.5L12,6.5Z" style="fill:rgb(220,220,220);"/>
                        </g>
                        <g transform="matrix(1,0,0,1,0,0.5)">
                            <path d="M13,6L14,6" style="fill:none;fill-rule:nonzero;"/>
                        </g>
                        <g transform="matrix(1,0,0,1,0,0.5)">
                            <path d="M13,6.5L14,6.5L14,5.5L13,5.5L13,6.5Z" style="fill:rgb(225,225,225);"/>
                        </g>
                        <g transform="matrix(1,0,0,1,0,0.5)">
                            <path d="M1,7L2,7M2,8L3,8" style="fill-rule:nonzero;"/>
                        </g>
                        <g transform="matrix(1,0,0,1,0,0.5)">
                            <path d="M2,8.5L3,8.5L3,7.5L2,7.5L2,8.5ZM1,7.5L2,7.5L2,6.5L1,6.5L1,7.5Z" style="fill:rgb(139,139,139);"/>
                        </g>
                        <g transform="matrix(1,0,0,1,0,0.5)">
                            <path d="M2,7L3,7M9,8L10,8M7,11L8,11M4,13L5,13" style="fill-rule:nonzero;"/>
                        </g>
                        <g transform="matrix(1,0,0,1,0,0.5)">
                            <path d="M4,13.5L5,13.5L5,12.5L4,12.5L4,13.5ZM7,11.5L8,11.5L8,10.5L7,10.5L7,11.5ZM9,8.5L10,8.5L10,7.5L9,7.5L9,8.5ZM2,7.5L3,7.5L3,6.5L2,6.5L2,7.5Z" style="fill:rgb(172,172,172);"/>
                        </g>
                        <g transform="matrix(1,0,0,1,0,0.5)">
                            <path d="M13,7L14,7M10,9L11,9M10,10L11,10" style="fill-rule:nonzero;"/>
                        </g>
                        <g transform="matrix(1,0,0,1,0,0.5)">
                            <path d="M10,10.5L11,10.5L11,9.5L10,9.5L10,10.5ZM10,9.5L11,9.5L11,8.5L10,8.5L10,9.5ZM13,7.5L14,7.5L14,6.5L13,6.5L13,7.5Z" style="fill:rgb(203,203,203);"/>
                        </g>
                        <g transform="matrix(1,0,0,1,0,0.5)">
                            <path d="M14,7L15,7" style="fill:none;fill-rule:nonzero;"/>
                        </g>
                        <g transform="matrix(1,0,0,1,0,0.5)">
                            <path d="M14,7.5L15,7.5L15,6.5L14,6.5L14,7.5Z" style="fill:rgb(165,165,165);"/>
                        </g>
                        <g transform="matrix(1,0,0,1,0,0.5)">
                            <path d="M3,8L4,8M13,8L14,8M10,12L11,12" style="fill-rule:nonzero;"/>
                        </g>
                        <g transform="matrix(1,0,0,1,0,0.5)">
                            <path d="M10,12.5L11,12.5L11,11.5L10,11.5L10,12.5ZM3,8.5L4,8.5L4,7.5L3,7.5L3,8.5ZM13,8.5L14,8.5L14,7.5L13,7.5L13,8.5Z" style="fill:rgb(153,153,153);"/>
                        </g>
                        <g transform="matrix(1,0,0,1,0,0.5)">
                            <path d="M4,8L5,8M8,9L9,9M7,10L8,10M10,11L11,11" style="fill-rule:nonzero;"/>
                        </g>
                        <g transform="matrix(1,0,0,1,0,0.5)">
                            <path d="M10,11.5L11,11.5L11,10.5L10,10.5L10,11.5ZM7,10.5L8,10.5L8,9.5L7,9.5L7,10.5ZM8,9.5L9,9.5L9,8.5L8,8.5L8,9.5ZM4,8.5L5,8.5L5,7.5L4,7.5L4,8.5Z" style="fill:rgb(171,171,171);"/>
                        </g>
                        <g transform="matrix(1,0,0,1,0,0.5)">
                            <path d="M11,8L12,8" style="fill:none;fill-rule:nonzero;"/>
                        </g>
                        <g transform="matrix(1,0,0,1,0,0.5)">
                            <path d="M11,8.5L12,8.5L12,7.5L11,7.5L11,8.5Z" style="fill:rgb(199,199,199);"/>
                        </g>
                        <g transform="matrix(1,0,0,1,0,0.5)">
                            <path d="M3,9L4,9" style="fill:none;fill-rule:nonzero;"/>
                        </g>
                        <g transform="matrix(1,0,0,1,0,0.5)">
                            <path d="M3,9.5L4,9.5L4,8.5L3,8.5L3,9.5Z" style="fill:rgb(142,142,142);"/>
                        </g>
                        <g transform="matrix(1,0,0,1,0,0.5)">
                            <path d="M12,9L13,9M5,13L6,13M11,14L12,14" style="fill-rule:nonzero;"/>
                        </g>
                        <g transform="matrix(1,0,0,1,0,0.5)">
                            <path d="M11,14.5L12,14.5L12,13.5L11,13.5L11,14.5ZM5,13.5L6,13.5L6,12.5L5,12.5L5,13.5ZM12,9.5L13,9.5L13,8.5L12,8.5L12,9.5Z" style="fill:rgb(145,145,145);"/>
                        </g>
                        <g transform="matrix(1,0,0,1,0,0.5)">
                            <path d="M6,11L7,11M4,14L5,14" style="fill-rule:nonzero;"/>
                        </g>
                        <g transform="matrix(1,0,0,1,0,0.5)">
                            <path d="M4,14.5L5,14.5L5,13.5L4,13.5L4,14.5ZM6,11.5L7,11.5L7,10.5L6,10.5L6,11.5Z" style="fill:rgb(159,159,159);"/>
                        </g>
                        <g transform="matrix(1,0,0,1,0,0.5)">
                            <path d="M7,12L8,12" style="fill:none;fill-rule:nonzero;"/>
                        </g>
                        <g transform="matrix(1,0,0,1,0,0.5)">
                            <path d="M7,12.5L8,12.5L8,11.5L7,11.5L7,12.5Z" style="fill:rgb(179,179,179);"/>
                        </g>
                        <g transform="matrix(1,0,0,1,0,0.5)">
                            <path d="M11,12L12,12M11,13L13,13M12,14L13,14" style="fill-rule:nonzero;"/>
                        </g>
                        <g transform="matrix(1,0,0,1,0,0.5)">
                            <path d="M12,14.5L13,14.5L13,13.5L12,13.5L12,14.5ZM11,13.5L13,13.5L13,12.5L11,12.5L11,13.5ZM11,12.5L12,12.5L12,11.5L11,11.5L11,12.5Z" style="fill:rgb(116,116,116);"/>
                        </g>
                    </g>
                    <g transform="matrix(0.9996,0,0,0.9996,119.823,101.712)">
                        <g transform="matrix(1,0,0,1,0,0.5)">
                            <path d="M6,0L10,0M6,1L7,1M9,1L10,1M6,2L7,2M9,2L10,2M5,3L6,3M10,3L11,3M5,4L6,4M10,4L11,4M0,5L6,5M10,5L16,5M0,6L1,6M15,6L16,6M0,7L1,7M15,7L16,7M1,8L2,8M14,8L15,8M2,9L3,9M13,9L14,9M3,10L4,10M12,10L13,10M3,11L4,11M12,11L13,11M3,12L4,12M12,12L13,12M2,13L3,13M7,13L9,13M13,13L14,13M2,14L3,14M6,14L7,14M9,14L10,14M13,14L14,14M2,15L6,15M10,15L14,15" style="fill-rule:nonzero;"/>
                        </g>
                        <g transform="matrix(0.136054,0,0,0.136054,-2.74912e-15,-101.659)">
                            <path d="M95.55,842.741L95.55,857.441L73.5,857.441L73.5,864.791L102.9,864.791L102.9,842.741L95.55,842.741ZM22.05,857.441L22.05,842.741L14.7,842.741L14.7,864.791L44.1,864.791L44.1,857.441C44.1,857.441 51.45,857.441 51.45,857.441L51.45,850.091L44.1,850.091L44.1,857.441L22.05,857.441ZM66.15,857.441L73.5,857.441L73.5,850.091L66.15,850.091L66.15,857.441ZM51.45,850.091L66.15,850.091L66.15,842.741L51.45,842.741L51.45,850.091ZM95.55,842.741L95.55,820.691L88.2,820.691L88.2,842.741L95.55,842.741ZM29.4,842.741L29.4,820.691L22.05,820.691L22.05,842.741L29.4,842.741ZM14.7,820.691L22.05,820.691L22.05,813.341L14.7,813.341L14.7,820.691ZM95.55,820.691L102.9,820.691L102.9,813.341L95.55,813.341L95.55,820.691ZM102.9,813.341L110.25,813.341L110.25,805.991L102.9,805.991L102.9,813.341ZM7.35,813.341L14.7,813.341L14.7,805.991L7.35,805.991L7.35,813.341ZM110.25,791.291L110.25,805.991L117.6,805.991L117.6,783.941L80.85,783.941L80.85,769.241L73.5,769.241L73.5,791.291L110.25,791.291ZM44.1,791.291L44.1,769.241L36.75,769.241L36.75,783.941L0,783.941L0,805.991L7.35,805.991L7.35,791.291L44.1,791.291ZM73.5,769.241L73.5,747.191L44.1,747.191L44.1,769.241L51.45,769.241L51.45,754.541L66.15,754.541L66.15,769.241L73.5,769.241Z" style="fill:rgb(56,36,24);"/>
                        </g>
                        <g transform="matrix(1,0,0,1,0,0.5)">
                            <path d="M7,1L8,1M7,2L8,2M6,3L7,3M6,4L7,4M6,5L7,5M3,6L4,6" style="fill-rule:nonzero;"/>
                        </g>
                        <g transform="matrix(1,0,0,1,0,0.5)">
                            <path d="M3,6.5L4,6.5L4,5.5L3,5.5L3,6.5ZM6,5.5L7,5.5L7,4.5L6,4.5L6,5.5ZM6,4.5L7,4.5L7,3.5L6,3.5L6,4.5ZM6,3.5L7,3.5L7,2.5L6,2.5L6,3.5ZM7,2.5L8,2.5L8,1.5L7,1.5L7,2.5ZM7,1.5L8,1.5L8,0.5L7,0.5L7,1.5Z" style="fill:rgb(232,232,232);"/>
                        </g>
                        <g transform="matrix(1,0,0,1,0,0.5)">
                            <path d="M8,1L9,1M9,3L10,3M11,11L12,11M6,13L7,13M5,14L6,14" style="fill-rule:nonzero;"/>
                        </g>
                        <g transform="matrix(1,0,0,1,0,0.5)">
                            <path d="M5,14.5L6,14.5L6,13.5L5,13.5L5,14.5ZM6,13.5L7,13.5L7,12.5L6,12.5L6,13.5ZM11,11.5L12,11.5L12,10.5L11,10.5L11,11.5ZM9,3.5L10,3.5L10,2.5L9,2.5L9,3.5ZM8,1.5L9,1.5L9,0.5L8,0.5L8,1.5Z" style="fill:rgb(127,127,127);"/>
                        </g>
                        <g transform="matrix(1,0,0,1,0,0.5)">
                            <path d="M8,2L9,2M9,4L10,4M6,12L7,12" style="fill-rule:nonzero;"/>
                        </g>
                        <g transform="matrix(1,0,0,1,0,0.5)">
                            <path d="M6,12.5L7,12.5L7,11.5L6,11.5L6,12.5ZM9,4.5L10,4.5L10,3.5L9,3.5L9,4.5ZM8,2.5L9,2.5L9,1.5L8,1.5L8,2.5Z" style="fill:rgb(133,133,133);"/>
                        </g>
                        <g transform="matrix(1,0,0,1,0,0.5)">
                            <path d="M7,3L8,3M5,6L8,6M4,7L5,7M6,7L7,7M11,7L12,7M12,8L13,8M11,9L12,9M4,12L5,12M9,12L10,12" style="fill-rule:nonzero;"/>
                        </g>
                        <g transform="matrix(1,0,0,1,0,0.5)">
                            <path d="M4,12.5L5,12.5L5,11.5L4,11.5L4,12.5ZM9,12.5L10,12.5L10,11.5L9,11.5L9,12.5ZM11,9.5L12,9.5L12,8.5L11,8.5L11,9.5ZM12,8.5L13,8.5L13,7.5L12,7.5L12,8.5ZM4,7.5L5,7.5L5,6.5L4,6.5L4,7.5ZM6,7.5L7,7.5L7,6.5L6,6.5L6,7.5ZM11,7.5L12,7.5L12,6.5L11,6.5L11,7.5ZM5,6.5L8,6.5L8,5.5L5,5.5L5,6.5ZM7,3.5L8,3.5L8,2.5L7,2.5L7,3.5Z" style="fill:rgb(190,190,190);"/>
                        </g>
                        <g transform="matrix(1,0,0,1,0,0.5)">
                            <path d="M8,3L9,3M11,10L12,10" style="fill-rule:nonzero;"/>
                        </g>
                        <g transform="matrix(1,0,0,1,0,0.5)">
                            <path d="M11,10.5L12,10.5L12,9.5L11,9.5L11,10.5ZM8,3.5L9,3.5L9,2.5L8,2.5L8,3.5Z" style="fill:rgb(151,151,151);"/>
                        </g>
                        <g transform="matrix(1,0,0,1,0,0.5)">
                            <path d="M7,4L8,4M7,5L8,5M3,7L4,7" style="fill-rule:nonzero;"/>
                        </g>
                        <g transform="matrix(1,0,0,1,0,0.5)">
                            <path d="M3,7.5L4,7.5L4,6.5L3,6.5L3,7.5ZM7,5.5L8,5.5L8,4.5L7,4.5L7,5.5ZM7,4.5L8,4.5L8,3.5L7,3.5L7,4.5Z" style="fill:rgb(194,194,194);"/>
                        </g>
                        <g transform="matrix(1,0,0,1,0,0.5)">
                            <path d="M8,4L9,4M5,12L6,12M10,13L11,13" style="fill-rule:nonzero;"/>
                        </g>
                        <g transform="matrix(1,0,0,1,0,0.5)">
                            <path d="M10,13.5L11,13.5L11,12.5L10,12.5L10,13.5ZM5,12.5L6,12.5L6,11.5L5,11.5L5,12.5ZM8,4.5L9,4.5L9,3.5L8,3.5L8,4.5Z" style="fill:rgb(160,160,160);"/>
                        </g>
                        <g transform="matrix(1,0,0,1,0,0.5)">
                            <path d="M8,5L9,5M5,7L6,7M8,8L9,8M10,8L11,8M4,9L5,9M7,9L8,9M9,9L10,9M6,10L7,10M8,10L9,10M9,13L10,13M10,14L11,14" style="fill-rule:nonzero;"/>
                        </g>
                        <g transform="matrix(1,0,0,1,0,0.5)">
                            <path d="M10,14.5L11,14.5L11,13.5L10,13.5L10,14.5ZM9,13.5L10,13.5L10,12.5L9,12.5L9,13.5ZM6,10.5L7,10.5L7,9.5L6,9.5L6,10.5ZM8,10.5L9,10.5L9,9.5L8,9.5L8,10.5ZM4,9.5L5,9.5L5,8.5L4,8.5L4,9.5ZM7,9.5L8,9.5L8,8.5L7,8.5L7,9.5ZM9,9.5L10,9.5L10,8.5L9,8.5L9,9.5ZM8,8.5L9,8.5L9,7.5L8,7.5L8,8.5ZM10,8.5L11,8.5L11,7.5L10,7.5L10,8.5ZM5,7.5L6,7.5L6,6.5L5,6.5L5,7.5ZM8,5.5L9,5.5L9,4.5L8,4.5L8,5.5Z" style="fill:rgb(180,180,180);"/>
                        </g>
                        <g transform="matrix(1,0,0,1,0,0.5)">
                            <path d="M9,5L10,5M9,7L11,7M5,8L6,8M5,11L6,11M3,13L4,13M3,14L4,14" style="fill-rule:nonzero;"/>
                        </g>
                        <g transform="matrix(1,0,0,1,0,0.5)">
                            <path d="M3,14.5L4,14.5L4,13.5L3,13.5L3,14.5ZM3,13.5L4,13.5L4,12.5L3,12.5L3,13.5ZM5,11.5L6,11.5L6,10.5L5,10.5L5,11.5ZM5,8.5L6,8.5L6,7.5L5,7.5L5,8.5ZM9,7.5L11,7.5L11,6.5L9,6.5L9,7.5ZM9,5.5L10,5.5L10,4.5L9,4.5L9,5.5Z" style="fill:rgb(184,184,184);"/>
                        </g>
                        <g transform="matrix(1,0,0,1,0,0.5)">
                            <path d="M1,6L3,6M4,6L5,6M11,6L12,6" style="fill-rule:nonzero;"/>
                        </g>
                        <g transform="matrix(1,0,0,1,0,0.5)">
                            <path d="M1,6.5L3,6.5L3,5.5L1,5.5L1,6.5ZM4,6.5L5,6.5L5,5.5L4,5.5L4,6.5ZM11,6.5L12,6.5L12,5.5L11,5.5L11,6.5Z" style="fill:rgb(216,216,216);"/>
                        </g>
                        <g transform="matrix(1,0,0,1,0,0.5)">
                            <path d="M8,6L10,6M14,6L15,6M7,7L8,7M5,9L6,9M4,10L6,10M4,11L5,11M8,11L9,11" style="fill-rule:nonzero;"/>
                        </g>
                        <g transform="matrix(1,0,0,1,0,0.5)">
                            <path d="M4,11.5L5,11.5L5,10.5L4,10.5L4,11.5ZM8,11.5L9,11.5L9,10.5L8,10.5L8,11.5ZM4,10.5L6,10.5L6,9.5L4,9.5L4,10.5ZM5,9.5L6,9.5L6,8.5L5,8.5L5,9.5ZM7,7.5L8,7.5L8,6.5L7,6.5L7,7.5ZM8,6.5L10,6.5L10,5.5L8,5.5L8,6.5ZM14,6.5L15,6.5L15,5.5L14,5.5L14,6.5Z" style="fill:rgb(208,208,208);"/>
                        </g>
                        <g transform="matrix(1,0,0,1,0,0.5)">
                            <path d="M10,6L11,6M8,7L9,7M12,7L13,7M6,8L8,8M6,9L7,9M9,10L10,10M9,11L10,11M8,12L9,12" style="fill-rule:nonzero;"/>
                        </g>
                        <g transform="matrix(1,0,0,1,0,0.5)">
                            <path d="M8,12.5L9,12.5L9,11.5L8,11.5L8,12.5ZM9,11.5L10,11.5L10,10.5L9,10.5L9,11.5ZM9,10.5L10,10.5L10,9.5L9,9.5L9,10.5ZM6,9.5L7,9.5L7,8.5L6,8.5L6,9.5ZM6,8.5L8,8.5L8,7.5L6,7.5L6,8.5ZM8,7.5L9,7.5L9,6.5L8,6.5L8,7.5ZM12,7.5L13,7.5L13,6.5L12,6.5L12,7.5ZM10,6.5L11,6.5L11,5.5L10,5.5L10,6.5Z" style="fill:rgb(205,205,205);"/>
                        </g>
                        <g transform="matrix(1,0,0,1,0,0.5)">
                            <path d="M12,6L13,6" style="fill:none;fill-rule:nonzero;"/>
                        </g>
                        <g transform="matrix(1,0,0,1,0,0.5)">
                            <path d="M12,6.5L13,6.5L13,5.5L12,5.5L12,6.5Z" style="fill:rgb(220,220,220);"/>
                        </g>
                        <g transform="matrix(1,0,0,1,0,0.5)">
                            <path d="M13,6L14,6" style="fill:none;fill-rule:nonzero;"/>
                        </g>
                        <g transform="matrix(1,0,0,1,0,0.5)">
                            <path d="M13,6.5L14,6.5L14,5.5L13,5.5L13,6.5Z" style="fill:rgb(225,225,225);"/>
                        </g>
                        <g transform="matrix(1,0,0,1,0,0.5)">
                            <path d="M1,7L2,7M2,8L3,8" style="fill-rule:nonzero;"/>
                        </g>
                        <g transform="matrix(1,0,0,1,0,0.5)">
                            <path d="M2,8.5L3,8.5L3,7.5L2,7.5L2,8.5ZM1,7.5L2,7.5L2,6.5L1,6.5L1,7.5Z" style="fill:rgb(139,139,139);"/>
                        </g>
                        <g transform="matrix(1,0,0,1,0,0.5)">
                            <path d="M2,7L3,7M9,8L10,8M7,11L8,11M4,13L5,13" style="fill-rule:nonzero;"/>
                        </g>
                        <g transform="matrix(1,0,0,1,0,0.5)">
                            <path d="M4,13.5L5,13.5L5,12.5L4,12.5L4,13.5ZM7,11.5L8,11.5L8,10.5L7,10.5L7,11.5ZM9,8.5L10,8.5L10,7.5L9,7.5L9,8.5ZM2,7.5L3,7.5L3,6.5L2,6.5L2,7.5Z" style="fill:rgb(172,172,172);"/>
                        </g>
                        <g transform="matrix(1,0,0,1,0,0.5)">
                            <path d="M13,7L14,7M10,9L11,9M10,10L11,10" style="fill-rule:nonzero;"/>
                        </g>
                        <g transform="matrix(1,0,0,1,0,0.5)">
                            <path d="M10,10.5L11,10.5L11,9.5L10,9.5L10,10.5ZM10,9.5L11,9.5L11,8.5L10,8.5L10,9.5ZM13,7.5L14,7.5L14,6.5L13,6.5L13,7.5Z" style="fill:rgb(203,203,203);"/>
                        </g>
                        <g transform="matrix(1,0,0,1,0,0.5)">
                            <path d="M14,7L15,7" style="fill:none;fill-rule:nonzero;"/>
                        </g>
                        <g transform="matrix(1,0,0,1,0,0.5)">
                            <path d="M14,7.5L15,7.5L15,6.5L14,6.5L14,7.5Z" style="fill:rgb(165,165,165);"/>
                        </g>
                        <g transform="matrix(1,0,0,1,0,0.5)">
                            <path d="M3,8L4,8M13,8L14,8M10,12L11,12" style="fill-rule:nonzero;"/>
                        </g>
                        <g transform="matrix(1,0,0,1,0,0.5)">
                            <path d="M10,12.5L11,12.5L11,11.5L10,11.5L10,12.5ZM3,8.5L4,8.5L4,7.5L3,7.5L3,8.5ZM13,8.5L14,8.5L14,7.5L13,7.5L13,8.5Z" style="fill:rgb(153,153,153);"/>
                        </g>
                        <g transform="matrix(1,0,0,1,0,0.5)">
                            <path d="M4,8L5,8M8,9L9,9M7,10L8,10M10,11L11,11" style="fill-rule:nonzero;"/>
                        </g>
                        <g transform="matrix(1,0,0,1,0,0.5)">
                            <path d="M10,11.5L11,11.5L11,10.5L10,10.5L10,11.5ZM7,10.5L8,10.5L8,9.5L7,9.5L7,10.5ZM8,9.5L9,9.5L9,8.5L8,8.5L8,9.5ZM4,8.5L5,8.5L5,7.5L4,7.5L4,8.5Z" style="fill:rgb(171,171,171);"/>
                        </g>
                        <g transform="matrix(1,0,0,1,0,0.5)">
                            <path d="M11,8L12,8" style="fill:none;fill-rule:nonzero;"/>
                        </g>
                        <g transform="matrix(1,0,0,1,0,0.5)">
                            <path d="M11,8.5L12,8.5L12,7.5L11,7.5L11,8.5Z" style="fill:rgb(199,199,199);"/>
                        </g>
                        <g transform="matrix(1,0,0,1,0,0.5)">
                            <path d="M3,9L4,9" style="fill:none;fill-rule:nonzero;"/>
                        </g>
                        <g transform="matrix(1,0,0,1,0,0.5)">
                            <path d="M3,9.5L4,9.5L4,8.5L3,8.5L3,9.5Z" style="fill:rgb(142,142,142);"/>
                        </g>
                        <g transform="matrix(1,0,0,1,0,0.5)">
                            <path d="M12,9L13,9M5,13L6,13M11,14L12,14" style="fill-rule:nonzero;"/>
                        </g>
                        <g transform="matrix(1,0,0,1,0,0.5)">
                            <path d="M11,14.5L12,14.5L12,13.5L11,13.5L11,14.5ZM5,13.5L6,13.5L6,12.5L5,12.5L5,13.5ZM12,9.5L13,9.5L13,8.5L12,8.5L12,9.5Z" style="fill:rgb(145,145,145);"/>
                        </g>
                        <g transform="matrix(1,0,0,1,0,0.5)">
                            <path d="M6,11L7,11M4,14L5,14" style="fill-rule:nonzero;"/>
                        </g>
                        <g transform="matrix(1,0,0,1,0,0.5)">
                            <path d="M4,14.5L5,14.5L5,13.5L4,13.5L4,14.5ZM6,11.5L7,11.5L7,10.5L6,10.5L6,11.5Z" style="fill:rgb(159,159,159);"/>
                        </g>
                        <g transform="matrix(1,0,0,1,0,0.5)">
                            <path d="M7,12L8,12" style="fill:none;fill-rule:nonzero;"/>
                        </g>
                        <g transform="matrix(1,0,0,1,0,0.5)">
                            <path d="M7,12.5L8,12.5L8,11.5L7,11.5L7,12.5Z" style="fill:rgb(179,179,179);"/>
                        </g>
                        <g transform="matrix(1,0,0,1,0,0.5)">
                            <path d="M11,12L12,12M11,13L13,13M12,14L13,14" style="fill-rule:nonzero;"/>
                        </g>
                        <g transform="matrix(1,0,0,1,0,0.5)">
                            <path d="M12,14.5L13,14.5L13,13.5L12,13.5L12,14.5ZM11,13.5L13,13.5L13,12.5L11,12.5L11,13.5ZM11,12.5L12,12.5L12,11.5L11,11.5L11,12.5Z" style="fill:rgb(116,116,116);"/>
                        </g>
                    </g>
                </g>
                <g transform="matrix(1,0,0,1,39.19,60.98)">
                    <path d="M94.352,-0.365C96.968,-0.365 100.365,0.21 103.064,2.141C105.093,3.594 106.752,5.797 107.411,9.105C108.854,16.339 107.933,24.553 106.559,28.362C105.83,30.383 104.742,31.968 103.485,33.068C102.075,34.301 100.448,34.935 98.823,34.935C95.898,34.935 86.915,34.12 85.333,31.936C83.754,29.759 81.52,25.751 81.52,21.801C81.52,21.112 81.51,20.428 81.499,19.743C81.452,16.686 81.413,13.613 82.234,9.988C82.776,7.595 84.62,4.972 86.941,2.975C89.274,0.968 92.054,-0.365 94.352,-0.365Z" style="fill:rgb(46,46,46);stroke:rgb(244,236,214);stroke-width:2.41px;stroke-miterlimit:4;"/>
                    <path d="M94.823,15.575L98.936,17.914C104.643,21.154 101.76,28.569 94.653,28.569C88.778,28.569 86.454,23.53 89.232,19.623L89.43,19.777C87.29,23.64 90.208,27.337 94.147,27.337C98.174,27.337 99.494,23.442 95.79,21.345L92.202,19.248C90.208,18.073 89.262,16.577 89.504,14.508C89.79,12.044 91.595,10.57 94.631,10.57C95.424,10.57 97.069,10.668 98.346,10.795L100.058,10.795L99.583,14.376L99.371,14.376C99.362,12.77 98.041,11.67 95.863,11.67C94.059,11.67 92.958,12.44 92.87,13.518C92.782,14.574 93.795,14.992 94.823,15.575Z" style="fill:rgb(244,236,214);"/>
                    <path d="M60.662,2.277C63.97,0.023 69.203,-1.824 71.822,-0.953C73.338,-0.449 75.959,1.495 78.111,4.542C79.634,6.699 80.925,9.394 81.423,12.448C82.597,19.64 80.736,26.848 78.75,29.451C78.441,29.856 78.13,30.292 77.812,30.737C75.93,33.371 73.774,35.982 71.011,35.982C67.853,35.982 60.061,35.741 57.281,32.873C54.501,30.006 53.693,28.128 52.748,24.91C51.676,21.273 50.672,17.337 52.376,14.252C52.569,13.903 52.786,13.501 53.023,13.062C54.865,9.656 57.925,4.142 60.662,2.277Z" style="fill:rgb(46,46,46);stroke:rgb(244,236,214);stroke-width:2.41px;stroke-miterlimit:4;"/>
                    <path d="M59.222,10.626L67.355,10.625C70.188,10.625 73.427,11.674 73.427,15.053C73.427,17.837 71.306,19.751 68.861,19.583C71.016,20.729 72.266,22.768 74.342,25.347C75.694,27.094 77.068,28.547 78.673,29.548L76.838,31.709C74.816,31.03 72.755,29.57 70.996,26.911C69.77,25.132 67.627,21.854 66.701,20.536C66.242,19.804 65.825,19.228 65.39,19.115L65.39,18.892C65.482,18.89 65.826,18.904 66.117,18.886C67.252,18.854 69.125,18.327 69.546,16.144C69.588,15.912 69.654,15.548 69.63,14.994C69.545,12.862 68.115,11.675 66.399,11.672L64.601,11.672L64.601,25.51C64.614,26.318 65.275,27.002 66.128,27.002L66.421,27.002L66.425,27.239L59.211,27.239L59.211,27.002L59.513,27.002C60.322,27.002 61.008,26.361 61.031,25.52L61.031,12.355C61.016,11.529 60.342,10.867 59.514,10.864L59.222,10.864L59.222,10.626Z" style="fill:rgb(244,236,214);"/>
                    <path d="M39.039,1.051C41.286,0.223 44.749,-0.285 47.667,0.263C50.127,0.725 52.165,1.926 53.094,4.051C55.131,8.711 53.731,11.677 52.256,14.058C51.062,15.983 50.999,19.021 51.373,21.977C51.482,22.835 51.816,23.815 52.168,24.885C53.233,28.112 54.388,31.981 52.286,35.784C51.537,37.14 49.956,38.008 47.784,38.289C45.731,38.555 43.157,38.313 40.609,37.712C37.896,37.072 35.215,36.03 33.239,34.817C31.105,33.508 29.853,31.961 29.694,30.54C29.516,28.94 29.314,27.765 29.102,26.607C28.621,23.994 28.212,21.773 27.845,17.229C27.572,13.833 28.783,10.677 30.611,8.052C33.118,4.452 36.767,1.889 39.039,1.051Z" style="fill:rgb(46,46,46);stroke:rgb(244,236,214);stroke-width:2.41px;stroke-miterlimit:4;"/>
                    <path d="M40.137,16.342L44.25,18.681C49.957,21.921 47.075,29.336 39.967,29.336C34.092,29.336 31.768,24.297 34.546,20.39L34.744,20.544C32.604,24.407 35.523,28.104 39.462,28.104C43.488,28.104 44.809,24.209 41.104,22.112L37.516,20.015C35.523,18.84 34.577,17.344 34.819,15.275C35.105,12.811 36.909,11.337 39.946,11.337C40.738,11.337 42.383,11.435 43.66,11.562L45.373,11.562L44.898,15.143L44.686,15.143C44.676,13.537 43.356,12.437 41.177,12.437C39.373,12.437 38.273,13.207 38.185,14.285C38.097,15.341 39.109,15.759 40.137,16.342Z" style="fill:rgb(244,236,214);"/>
                    <path d="M12.385,0.582C15.883,0.183 18.633,0.696 20.763,1.611C23.851,2.937 25.666,5.121 26.573,6.781C27.907,9.223 28.06,13.19 28.066,15.559L28.066,16.282C28.066,16.767 28.151,17.637 28.254,18.721C28.589,22.274 29.05,27.896 27.983,30.614C26.454,34.506 24.598,37.321 20.243,38.24C18.001,38.713 13.876,38.251 10.159,37.094C6.847,36.062 3.931,34.461 2.758,32.667C0.347,28.98 -1.203,22.298 -1.203,16.709C-1.203,13.524 0.325,9.227 3.142,5.868C5.446,3.12 8.59,1.015 12.385,0.582Z" style="fill:rgb(46,46,46);stroke:rgb(244,236,214);stroke-width:2.41px;stroke-miterlimit:4;"/>
                    <path d="M12.202,18.277L11.955,18.277C10.622,16.047 11.361,13.111 14.38,12.515C17.707,11.858 23.335,14.199 23.335,19.888C23.335,24.509 19.597,27.466 14.01,27.466C8.383,27.466 4.625,24.447 4.625,19.929C4.625,16.171 7.192,13.295 10.898,12.662L11.021,12.867C9.882,14.055 9.164,16.54 9.164,19.231C9.164,23.564 11.033,26.439 14.031,26.439C16.865,26.439 18.796,23.893 18.796,19.888C18.796,16.109 17.091,13.213 14.442,13.542C12.265,13.809 11.525,16.047 12.202,18.277Z" style="fill:rgb(244,236,214);"/>
                </g>
                <g transform="matrix(1,0,0,1,30.575,94.712)">
                    <path d="M126.686,-2.017L119.355,14.358L126.053,27.858C122.663,29.964 117.043,30.917 109.155,30.59L100.02,28.451L100.02,-1.396C112.253,0.486 121.146,0.314 126.686,-2.017Z" style="fill:rgb(81,53,53);stroke:rgb(244,236,214);stroke-width:2.41px;stroke-miterlimit:4;"/>
                    <g transform="matrix(-1,0,0,1,24.244,0)">
                        <path d="M26.386,-0.154L19.089,16.238L25.948,29.341C21.284,31.15 15.617,32.066 8.943,32.066L-1.203,32.066L-1.203,3.072C8.653,3.478 17.85,2.405 26.386,-0.154Z" style="fill:rgb(81,53,53);stroke:rgb(244,236,214);stroke-width:2.41px;stroke-miterlimit:4;"/>
                    </g>
                    <g transform="matrix(-1,0,0,1,208.598,0)">
                        <path d="M108.5,-0.248L108.5,22.235L100.356,22.235L100.087,5.127L108.5,-0.248Z" style="fill:rgb(81,53,53);stroke:rgb(244,236,214);stroke-width:2.41px;stroke-miterlimit:4;"/>
                    </g>
                    <path d="M25.447,3.573L25.447,25.286L16.177,25.286L15.845,6.593L25.447,3.573Z" style="fill:rgb(81,53,53);stroke:rgb(244,236,214);stroke-width:2.41px;stroke-miterlimit:4;"/>
                    <path d="M65.986,4.463C83.24,2.393 97.41,2.713 108.5,5.391L108.5,36.422C95.316,34.594 81.238,34.536 66.265,36.243C63.669,36.539 61.167,36.831 58.753,37.114C40.706,39.227 27.564,40.738 16.842,38.724C16.514,38.663 16.186,38.598 15.858,38.528C15.859,38.201 15.86,37.872 15.86,37.539C15.888,25.435 15.906,17.067 15.915,12.434L15.917,11.337L15.919,10.232L15.92,9.49L15.922,7.035C28.856,8.982 38.601,7.782 59.744,5.218C61.721,4.978 63.798,4.726 65.986,4.463Z" style="fill:rgb(81,53,53);stroke:rgb(244,236,214);stroke-width:2.41px;stroke-miterlimit:4;"/>
                    <path d="M49.122,22.691L44.274,15.418L44.079,15.429L41.158,23.287L38.341,17.8C37.974,17.002 38.475,16.486 39.011,16.437L39.195,16.42L39.176,16.213L31.667,16.907L31.686,17.116L31.853,17.101C32.481,17.043 33.277,17.315 33.754,18.121L39.044,28.994C38.53,30.478 37.209,34.236 34.413,35.001L34.432,35.21C37.716,35.75 39.708,31.728 40.287,30.188L43.422,21.885L49.083,30.523L49.28,30.505C49.16,29.201 49.376,28.152 49.376,28.152L52.081,15.141C52.592,12.684 53.919,10.151 57.31,9.584L57.291,9.375C52.784,9.201 50.938,12.565 50.449,15.292L49.122,22.691Z" style="fill:rgb(244,236,214);fill-rule:nonzero;"/>
                    <path d="M63.653,28.68L63.389,28.707C62.657,28.781 62.005,28.254 61.918,27.528L60.746,15.933C60.694,15.209 61.226,14.571 61.953,14.497L62.217,14.47L62.199,14.261L54.704,15.019L54.728,15.227L54.992,15.2C55.721,15.127 56.371,15.649 56.462,16.37L57.633,27.961C57.693,28.69 57.159,29.336 56.428,29.41L56.163,29.437L56.181,29.646L63.677,28.889L63.653,28.68ZM71.284,15.129C71.257,14.404 71.811,13.784 72.54,13.736L72.805,13.719L72.795,13.509L65.277,14.002L65.294,14.211L65.563,14.194C66.289,14.144 66.921,14.689 66.987,15.413L67.749,27.038C67.783,27.769 67.226,28.396 66.493,28.444L66.228,28.461L66.238,28.671L73.757,28.178L73.739,27.969L73.475,27.986C72.741,28.035 72.107,27.486 72.046,26.757L71.284,15.129ZM88.955,30.675C86.079,30.632 84.186,29.43 80.836,25.332L75.589,18.914L78.897,14.337C79.397,13.685 80.208,13.215 81.132,13.153L81.224,13.147L81.211,12.958L76.159,13.289L76.171,13.474L76.374,13.461C76.948,13.423 77.247,13.926 76.945,14.414L72.383,21.572L77.408,27.661C80.993,31.997 84.46,33.895 89.012,30.903L88.955,30.675Z" style="fill:rgb(244,236,214);fill-rule:nonzero;"/>
                    <path d="M92.285,26.915L92.02,26.924C91.285,26.95 90.668,26.383 90.629,25.652L90.219,14.005C90.214,13.28 90.787,12.677 91.517,12.651L91.782,12.642L91.778,12.432L84.249,12.697L84.26,12.907L84.525,12.898C85.257,12.872 85.871,13.435 85.915,14.161L86.325,25.804C86.337,26.535 85.762,27.145 85.027,27.171L84.762,27.18L84.766,27.39L92.296,27.125L92.285,26.915Z" style="fill:rgb(244,236,214);fill-rule:nonzero;"/>
                </g>
            </g>
        </g>
    </g>
</svg>
